<svg width="125" height="24" viewBox="0 0 125 24" fill="none" xmlns="http://www.w3.org/2000/svg">
    <g clip-path="url(#clip0_686_1826)">
        <path d="M115.419 15.3464C115.115 14.8148 115.24 14.3878 115.795 14.0654L122.961 10.1438V10.8758L115.822 7.03268C115.258 6.71895 115.124 6.28322 115.419 5.72549C115.75 5.1939 116.198 5.07189 116.761 5.35947L124.329 9.46405C124.777 9.71677 125 10.0479 125 10.4575C125 10.9542 124.777 11.329 124.329 11.5817L116.761 15.7124C116.18 16.0087 115.732 15.8867 115.419 15.3464Z" fill="#0057FF"/>
        <path d="M102.53 23.085C102.1 23.085 101.783 22.9542 101.577 22.6928C101.371 22.4314 101.322 22.0915 101.429 21.6732L106.931 0.862745C107.119 0.287582 107.486 0 108.031 0C108.461 0 108.778 0.135076 108.984 0.405229C109.199 0.666667 109.239 1.00218 109.105 1.41176L103.63 22.2222C103.469 22.7974 103.102 23.085 102.53 23.085Z" fill="#0057FF"/>
        <path d="M94.4652 19.4248C93.7138 19.4248 93.338 18.9717 93.338 18.0653V9.98691L84.1194 19.2418H82.0127V7.97384C82.0127 7.11981 82.3884 6.69279 83.1399 6.69279C83.8913 6.69279 84.267 7.14595 84.267 8.05227V16.2353L93.5661 6.8758H95.5924V18.1438C95.5924 18.9978 95.2166 19.4248 94.4652 19.4248Z" fill="#0057FF"/>
        <path d="M66.3755 24C65.624 24 65.2483 23.5556 65.2483 22.6667V18.2091C64.8189 18.5577 64.3269 18.8192 63.7723 18.9935C63.2176 19.159 62.6093 19.2418 61.9473 19.2418C58.6374 19.2418 56.9824 17.4641 56.9824 13.9085V12.2091C56.9824 8.65359 58.6374 6.87582 61.9473 6.87582C62.6093 6.87582 63.2176 6.96296 63.7723 7.13725C64.3269 7.30283 64.8189 7.55991 65.2483 7.9085V3.45098C65.2483 2.56209 65.624 2.11765 66.3755 2.11765C67.1269 2.11765 67.5026 2.56209 67.5026 3.45098V7.9085C67.932 7.55991 68.424 7.30283 68.9787 7.13725C69.5423 6.96296 70.1506 6.87582 70.8036 6.87582C74.1136 6.87582 75.7685 8.65359 75.7685 12.2091V13.9085C75.7685 15.6688 75.3526 16.9978 74.5206 17.8954C73.6976 18.793 72.4586 19.2418 70.8036 19.2418C70.1506 19.2418 69.5423 19.159 68.9787 18.9935C68.424 18.8192 67.932 18.5577 67.5026 18.2091V22.6667C67.5026 23.5556 67.1269 24 66.3755 24ZM61.9742 17.0458C62.7524 17.0458 63.3831 16.8671 63.8662 16.5098C64.3493 16.1525 64.6981 15.6732 64.9128 15.0719C65.1365 14.4619 65.2483 13.7865 65.2483 13.0458C65.2483 12.2614 65.1365 11.573 64.9128 10.9804C64.6892 10.3791 64.3314 9.91285 63.8393 9.5817C63.3563 9.24183 62.7256 9.07189 61.9473 9.07189C61.348 9.07189 60.8649 9.15033 60.4981 9.30719C60.1403 9.45534 59.8674 9.66884 59.6796 9.94771C59.5007 10.2266 59.3799 10.5577 59.3173 10.9412C59.2636 11.3246 59.2368 11.7473 59.2368 12.2091V13.9085C59.2368 15.0588 59.438 15.8693 59.8406 16.3399C60.2432 16.8105 60.9543 17.0458 61.9742 17.0458ZM70.8841 17.0458C71.5909 17.0458 72.1321 16.9237 72.5078 16.6797C72.8925 16.427 73.1564 16.0697 73.2995 15.6078C73.4426 15.1373 73.5142 14.5708 73.5142 13.9085V12.2091C73.5142 11.0588 73.3129 10.2484 72.9104 9.77778C72.5078 9.30719 71.7966 9.07189 70.7768 9.07189C70.0075 9.07189 69.3812 9.25054 68.8982 9.60784C68.4151 9.96514 68.0617 10.4444 67.8381 11.0458C67.6145 11.6471 67.5026 12.3137 67.5026 13.0458C67.5026 13.8649 67.6234 14.5752 67.8649 15.1765C68.1154 15.7691 68.4911 16.2309 68.9921 16.5621C69.4931 16.8845 70.1237 17.0458 70.8841 17.0458Z" fill="#0057FF"/>
        <path d="M44.319 19.1242C42.9413 19.1242 41.8186 18.9934 40.9509 18.732C40.0832 18.4619 39.4391 17.9913 39.0186 17.3202C38.6071 16.6492 38.4014 15.7037 38.4014 14.4836V11.6209C38.4014 10.4096 38.6071 9.46839 39.0186 8.79737C39.4391 8.12634 40.0832 7.66011 40.9509 7.39867C41.8186 7.12852 42.9413 6.99345 44.319 6.99345H45.0973C46.466 6.99345 47.5842 7.12852 48.4519 7.39867C49.3286 7.66011 49.9727 8.12634 50.3842 8.79737C50.7957 9.46839 51.0015 10.4096 51.0015 11.6209V14.4836C51.0015 15.7037 50.7957 16.6492 50.3842 17.3202C49.9727 17.9913 49.3286 18.4619 48.4519 18.732C47.5842 18.9934 46.466 19.1242 45.0973 19.1242H44.319ZM44.319 17.7516H45.0973C46.2692 17.7516 47.1816 17.6732 47.8347 17.5163C48.4877 17.3507 48.9439 17.0327 49.2034 16.5621C49.4628 16.0828 49.5925 15.3856 49.5925 14.4706V11.647C49.5925 10.6797 49.4539 9.96512 49.1765 9.50325C48.8992 9.03266 48.434 8.72765 47.781 8.58822C47.128 8.44007 46.2334 8.366 45.0973 8.366H44.319C43.165 8.366 42.257 8.44007 41.595 8.58822C40.942 8.72765 40.4813 9.03266 40.2129 9.50325C39.9445 9.97384 39.8103 10.6884 39.8103 11.647V14.4706C39.8103 15.3943 39.94 16.0915 40.1995 16.5621C40.4589 17.0327 40.9151 17.3507 41.5682 17.5163C42.2302 17.6732 43.1471 17.7516 44.319 17.7516Z" fill="#222222"/>
        <path d="M23.7206 19.085C21.7793 19.085 20.3614 18.6492 19.4669 17.7778C18.5723 16.9063 18.125 15.5251 18.125 13.634V7.68627C18.125 5.77778 18.5678 4.39216 19.4534 3.52941C20.348 2.66667 21.7615 2.23529 23.6937 2.23529H26.941C28.5871 2.23529 29.8126 2.57081 30.6178 3.24183C31.4229 3.90414 31.8657 4.97168 31.9462 6.44444C31.973 6.67974 31.9238 6.85839 31.7986 6.98039C31.6823 7.1024 31.5079 7.1634 31.2753 7.1634C30.828 7.1634 30.582 6.93246 30.5372 6.47059C30.4746 5.38998 30.1705 4.64488 29.6248 4.23529C29.0791 3.81699 28.1845 3.60784 26.941 3.60784H23.6937C22.665 3.60784 21.8464 3.73856 21.2381 4C20.6298 4.25272 20.1915 4.67974 19.9231 5.28105C19.6637 5.87364 19.534 6.67538 19.534 7.68627V13.634C19.534 14.6449 19.6681 15.4466 19.9365 16.0392C20.2049 16.6318 20.6432 17.0588 21.2515 17.3203C21.8599 17.5817 22.6829 17.7124 23.7206 17.7124H26.941C28.1845 17.7124 29.0791 17.5076 29.6248 17.098C30.1705 16.6797 30.4746 15.9303 30.5372 14.8497C30.582 14.3878 30.828 14.1569 31.2753 14.1569C31.5079 14.1569 31.6823 14.2222 31.7986 14.3529C31.9238 14.4749 31.973 14.6492 31.9462 14.8758C31.8657 16.3486 31.4229 17.4205 30.6178 18.0915C29.8126 18.7538 28.5871 19.085 26.941 19.085H23.7206Z" fill="#222222"/>
        <path d="M9.58091 15.3464C9.26781 15.8867 8.82052 16.0087 8.23905 15.7124L0.670932 11.5817C0.223644 11.329 0 10.9542 0 10.4575C0 10.0479 0.223644 9.71677 0.670932 9.46405L8.23905 5.35947C8.80263 5.07189 9.24992 5.1939 9.58091 5.72549C9.87612 6.28322 9.74194 6.71895 9.17835 7.03268L2.03963 10.8758V10.1438L9.20519 14.0654C9.75983 14.3878 9.88507 14.8148 9.58091 15.3464Z" fill="#222222"/>
    </g>
    <defs>
        <clipPath id="clip0_686_1826">
            <rect width="125" height="24" fill="white"/>
        </clipPath>
    </defs>
</svg>

